# Blender 3.5.1
# www.blender.org
mtllib arrow.mtl
o Cone
v 0.000881 0.492484 0.000000
v 0.098862 0.482939 0.000000
v 0.193079 0.454672 0.000000
v 0.279910 0.408770 0.000000
v 0.356017 0.346995 0.000000
v 0.418477 0.271722 0.000000
v 0.464889 0.185844 0.000000
v 0.493469 0.092660 0.000000
v 0.503119 -0.004247 0.000000
v 0.493469 -0.101154 0.000000
v 0.464889 -0.194338 0.000000
v 0.418477 -0.280216 0.000000
v 0.356017 -0.355489 0.000000
v 0.279910 -0.417264 0.000000
v 0.193079 -0.463166 0.000000
v 0.098862 -0.491433 0.000000
v 0.000881 -0.500978 0.000000
v -0.097101 -0.491433 0.000000
v -0.191318 -0.463166 0.000000
v -0.278148 -0.417264 0.000000
v -0.354256 -0.355489 0.000000
v -0.416716 -0.280216 0.000000
v -0.463128 -0.194338 0.000000
v -0.491708 -0.101154 0.000000
v -0.501358 -0.004247 0.000000
v -0.491708 0.092660 0.000000
v -0.463128 0.185844 0.000000
v -0.416716 0.271722 0.000000
v -0.354256 0.346995 0.000000
v -0.278148 0.408770 0.000000
v -0.191318 0.454672 0.000000
v -0.097101 0.482939 0.000000
v 0.000881 -0.004247 1.062360
vn 0.0879 0.9024 0.4219
vn 0.2605 0.8683 0.4222
vn 0.4235 0.8012 0.4227
vn 0.5709 0.7034 0.4234
vn 0.6969 0.5783 0.4242
vn 0.7964 0.4304 0.4249
vn 0.8652 0.2654 0.4254
vn 0.9004 0.0897 0.4257
vn 0.9004 -0.0897 0.4257
vn 0.8652 -0.2654 0.4254
vn 0.7964 -0.4304 0.4249
vn 0.6969 -0.5783 0.4242
vn 0.5709 -0.7034 0.4234
vn 0.4235 -0.8012 0.4227
vn 0.2605 -0.8683 0.4222
vn 0.0879 -0.9024 0.4219
vn -0.0879 -0.9024 0.4219
vn -0.2605 -0.8683 0.4222
vn -0.4235 -0.8012 0.4227
vn -0.5709 -0.7034 0.4234
vn -0.6969 -0.5783 0.4242
vn -0.7964 -0.4304 0.4249
vn -0.8652 -0.2654 0.4254
vn -0.9004 -0.0897 0.4257
vn -0.9004 0.0897 0.4257
vn -0.8652 0.2654 0.4254
vn -0.7964 0.4304 0.4249
vn -0.6969 0.5783 0.4242
vn -0.5709 0.7034 0.4234
vn -0.4235 0.8012 0.4227
vn -0.0000 -0.0000 -1.0000
vn -0.2605 0.8683 0.4222
vn -0.0879 0.9024 0.4219
vt 0.750000 0.490000
vt 0.250000 0.490000
vt 0.296822 0.485388
vt 0.796822 0.485388
vt 0.341844 0.471731
vt 0.841844 0.471731
vt 0.383337 0.449553
vt 0.883337 0.449553
vt 0.419706 0.419706
vt 0.919706 0.419706
vt 0.449553 0.383337
vt 0.949553 0.383337
vt 0.471731 0.341844
vt 0.971731 0.341844
vt 0.485388 0.296822
vt 0.985388 0.296822
vt 0.490000 0.250000
vt 0.990000 0.250000
vt 0.485388 0.203178
vt 0.985388 0.203178
vt 0.471731 0.158156
vt 0.971731 0.158156
vt 0.449553 0.116663
vt 0.949553 0.116663
vt 0.419706 0.080294
vt 0.919706 0.080294
vt 0.383337 0.050447
vt 0.883337 0.050447
vt 0.341844 0.028269
vt 0.841844 0.028269
vt 0.296822 0.014612
vt 0.796822 0.014612
vt 0.250000 0.010000
vt 0.750000 0.010000
vt 0.203178 0.014612
vt 0.703178 0.014612
vt 0.158156 0.028269
vt 0.658156 0.028269
vt 0.116663 0.050447
vt 0.616663 0.050447
vt 0.080294 0.080294
vt 0.580294 0.080294
vt 0.050447 0.116663
vt 0.550447 0.116663
vt 0.028269 0.158156
vt 0.528269 0.158156
vt 0.014612 0.203178
vt 0.514612 0.203178
vt 0.010000 0.250000
vt 0.510000 0.250000
vt 0.014612 0.296822
vt 0.514612 0.296822
vt 0.028269 0.341844
vt 0.528269 0.341844
vt 0.050447 0.383337
vt 0.550447 0.383337
vt 0.080294 0.419706
vt 0.580294 0.419706
vt 0.116663 0.449553
vt 0.616663 0.449553
vt 0.658156 0.471731
vt 0.158156 0.471731
vt 0.703178 0.485388
vt 0.203178 0.485388
vt 0.250000 0.250000
s 0
f 1/2/1 33/65/1 2/3/1
f 2/3/2 33/65/2 3/5/2
f 3/5/3 33/65/3 4/7/3
f 4/7/4 33/65/4 5/9/4
f 5/9/5 33/65/5 6/11/5
f 6/11/6 33/65/6 7/13/6
f 7/13/7 33/65/7 8/15/7
f 8/15/8 33/65/8 9/17/8
f 9/17/9 33/65/9 10/19/9
f 10/19/10 33/65/10 11/21/10
f 11/21/11 33/65/11 12/23/11
f 12/23/12 33/65/12 13/25/12
f 13/25/13 33/65/13 14/27/13
f 14/27/14 33/65/14 15/29/14
f 15/29/15 33/65/15 16/31/15
f 16/31/16 33/65/16 17/33/16
f 17/33/17 33/65/17 18/35/17
f 18/35/18 33/65/18 19/37/18
f 19/37/19 33/65/19 20/39/19
f 20/39/20 33/65/20 21/41/20
f 21/41/21 33/65/21 22/43/21
f 22/43/22 33/65/22 23/45/22
f 23/45/23 33/65/23 24/47/23
f 24/47/24 33/65/24 25/49/24
f 25/49/25 33/65/25 26/51/25
f 26/51/26 33/65/26 27/53/26
f 27/53/27 33/65/27 28/55/27
f 28/55/28 33/65/28 29/57/28
f 29/57/29 33/65/29 30/59/29
f 30/59/30 33/65/30 31/62/30
f 1/1/31 2/4/31 3/6/31 4/8/31 5/10/31 6/12/31 7/14/31 8/16/31 9/18/31 10/20/31 11/22/31 12/24/31 13/26/31 14/28/31 15/30/31 16/32/31 17/34/31 18/36/31 19/38/31 20/40/31 21/42/31 22/44/31 23/46/31 24/48/31 25/50/31 26/52/31 27/54/31 28/56/31 29/58/31 30/60/31 31/61/31 32/63/31
f 31/62/32 33/65/32 32/64/32
f 32/64/33 33/65/33 1/2/33
o Cylinder
v -0.004124 0.157564 0.406556
v -0.004124 0.157564 -1.964365
v -0.034084 0.154684 0.406556
v -0.034084 0.154684 -1.964365
v -0.062893 0.146156 0.406556
v -0.062893 0.146156 -1.964365
v -0.089444 0.132306 0.406556
v -0.089444 0.132306 -1.964365
v -0.112716 0.113668 0.406556
v -0.112716 0.113668 -1.964365
v -0.131814 0.090958 0.406556
v -0.131814 0.090958 -1.964365
v -0.146006 0.065047 0.406556
v -0.146006 0.065047 -1.964365
v -0.154745 0.036933 0.406556
v -0.154745 0.036933 -1.964365
v -0.157696 0.007695 0.406556
v -0.157696 0.007695 -1.964365
v -0.154745 -0.021543 0.406556
v -0.154745 -0.021543 -1.964365
v -0.146006 -0.049657 0.406556
v -0.146006 -0.049657 -1.964365
v -0.131814 -0.075567 0.406556
v -0.131814 -0.075567 -1.964365
v -0.112716 -0.098278 0.406556
v -0.112716 -0.098278 -1.964365
v -0.089444 -0.116916 0.406556
v -0.089444 -0.116916 -1.964365
v -0.062893 -0.130765 0.406556
v -0.062893 -0.130765 -1.964365
v -0.034084 -0.139294 0.406556
v -0.034084 -0.139294 -1.964365
v -0.004124 -0.142173 0.406556
v -0.004124 -0.142173 -1.964365
v 0.025837 -0.139294 0.406556
v 0.025836 -0.139294 -1.964365
v 0.054646 -0.130765 0.406556
v 0.054645 -0.130765 -1.964365
v 0.081196 -0.116916 0.406556
v 0.081196 -0.116916 -1.964365
v 0.104468 -0.098278 0.406556
v 0.104468 -0.098278 -1.964365
v 0.123567 -0.075567 0.406556
v 0.123566 -0.075567 -1.964365
v 0.137758 -0.049657 0.406556
v 0.137758 -0.049657 -1.964365
v 0.146497 -0.021543 0.406556
v 0.146497 -0.021543 -1.964365
v 0.149448 0.007695 0.406556
v 0.149448 0.007695 -1.964365
v 0.146497 0.036933 0.406556
v 0.146497 0.036933 -1.964365
v 0.137758 0.065047 0.406556
v 0.137758 0.065047 -1.964365
v 0.123567 0.090958 0.406556
v 0.123566 0.090958 -1.964365
v 0.104468 0.113668 0.406556
v 0.104468 0.113668 -1.964365
v 0.081196 0.132306 0.406556
v 0.081196 0.132306 -1.964365
v 0.054646 0.146156 0.406556
v 0.054645 0.146156 -1.964365
v 0.025837 0.154684 0.406556
v 0.025836 0.154684 -1.964365
vn -0.0957 0.9954 -0.0000
vn -0.2839 0.9589 -0.0000
vn -0.4625 0.8866 -0.0000
vn -0.6251 0.7805 -0.0000
vn -0.7653 0.6436 -0.0000
vn -0.8771 0.4804 -0.0000
vn -0.9549 0.2968 -0.0000
vn -0.9949 0.1004 -0.0000
vn -0.9949 -0.1004 -0.0000
vn -0.9549 -0.2968 -0.0000
vn -0.8771 -0.4804 -0.0000
vn -0.7653 -0.6436 -0.0000
vn -0.6251 -0.7805 -0.0000
vn -0.4625 -0.8866 -0.0000
vn -0.2839 -0.9589 -0.0000
vn -0.0957 -0.9954 -0.0000
vn 0.0957 -0.9954 -0.0000
vn 0.2839 -0.9589 -0.0000
vn 0.4625 -0.8866 -0.0000
vn 0.6251 -0.7805 -0.0000
vn 0.7653 -0.6436 -0.0000
vn 0.8771 -0.4804 -0.0000
vn 0.9549 -0.2968 -0.0000
vn 0.9949 -0.1004 -0.0000
vn 0.9949 0.1004 -0.0000
vn 0.9549 0.2968 -0.0000
vn 0.8771 0.4804 -0.0000
vn 0.7653 0.6436 -0.0000
vn 0.6251 0.7805 -0.0000
vn 0.4625 0.8866 -0.0000
vn -0.0000 -0.0000 -1.0000
vn 0.2839 0.9589 -0.0000
vn 0.0957 0.9954 -0.0000
vn -0.0000 -0.0000 1.0000
vt 1.000000 0.500000
vt 0.000000 0.500000
vt 0.750000 0.490000
vt 1.000000 1.000000
vt 0.250000 0.490000
vt 0.000000 1.000000
vt 0.968750 0.500000
vt 0.796822 0.485388
vt 0.968750 1.000000
vt 0.296822 0.485388
vt 0.937500 0.500000
vt 0.841844 0.471731
vt 0.937500 1.000000
vt 0.341844 0.471731
vt 0.906250 0.500000
vt 0.883337 0.449553
vt 0.906250 1.000000
vt 0.383337 0.449553
vt 0.875000 0.500000
vt 0.919706 0.419706
vt 0.875000 1.000000
vt 0.419706 0.419706
vt 0.843750 0.500000
vt 0.949553 0.383337
vt 0.843750 1.000000
vt 0.449553 0.383337
vt 0.812500 0.500000
vt 0.971731 0.341844
vt 0.812500 1.000000
vt 0.471731 0.341844
vt 0.781250 0.500000
vt 0.985388 0.296822
vt 0.781250 1.000000
vt 0.485388 0.296822
vt 0.750000 0.500000
vt 0.990000 0.250000
vt 0.750000 1.000000
vt 0.490000 0.250000
vt 0.718750 0.500000
vt 0.985388 0.203178
vt 0.718750 1.000000
vt 0.485388 0.203178
vt 0.687500 0.500000
vt 0.971731 0.158156
vt 0.687500 1.000000
vt 0.471731 0.158156
vt 0.656250 0.500000
vt 0.949553 0.116663
vt 0.656250 1.000000
vt 0.449553 0.116663
vt 0.625000 0.500000
vt 0.919706 0.080294
vt 0.625000 1.000000
vt 0.419706 0.080294
vt 0.593750 0.500000
vt 0.883337 0.050447
vt 0.593750 1.000000
vt 0.383337 0.050447
vt 0.562500 0.500000
vt 0.841844 0.028269
vt 0.562500 1.000000
vt 0.341844 0.028269
vt 0.531250 0.500000
vt 0.796822 0.014612
vt 0.531250 1.000000
vt 0.296822 0.014612
vt 0.500000 0.500000
vt 0.750000 0.010000
vt 0.500000 1.000000
vt 0.250000 0.010000
vt 0.468750 0.500000
vt 0.703178 0.014612
vt 0.468750 1.000000
vt 0.203178 0.014612
vt 0.437500 0.500000
vt 0.658156 0.028269
vt 0.437500 1.000000
vt 0.158156 0.028269
vt 0.406250 0.500000
vt 0.616663 0.050447
vt 0.406250 1.000000
vt 0.116663 0.050447
vt 0.375000 0.500000
vt 0.580294 0.080294
vt 0.375000 1.000000
vt 0.080294 0.080294
vt 0.343750 0.500000
vt 0.550447 0.116663
vt 0.343750 1.000000
vt 0.050447 0.116663
vt 0.312500 0.500000
vt 0.528269 0.158156
vt 0.312500 1.000000
vt 0.028269 0.158156
vt 0.281250 0.500000
vt 0.514612 0.203178
vt 0.281250 1.000000
vt 0.014612 0.203178
vt 0.250000 0.500000
vt 0.510000 0.250000
vt 0.250000 1.000000
vt 0.010000 0.250000
vt 0.218750 0.500000
vt 0.514612 0.296822
vt 0.218750 1.000000
vt 0.014612 0.296822
vt 0.187500 0.500000
vt 0.528269 0.341844
vt 0.187500 1.000000
vt 0.028269 0.341844
vt 0.156250 0.500000
vt 0.550447 0.383337
vt 0.156250 1.000000
vt 0.050447 0.383337
vt 0.125000 0.500000
vt 0.580294 0.419706
vt 0.125000 1.000000
vt 0.080294 0.419706
vt 0.093750 0.500000
vt 0.616663 0.449553
vt 0.093750 1.000000
vt 0.116663 0.449553
vt 0.062500 0.500000
vt 0.658156 0.471731
vt 0.158156 0.471731
vt 0.062500 1.000000
vt 0.031250 0.500000
vt 0.703178 0.485388
vt 0.203178 0.485388
vt 0.031250 1.000000
s 0
f 34/66/34 35/69/34 37/74/34 36/72/34
f 36/72/35 37/74/35 39/78/35 38/76/35
f 38/76/36 39/78/36 41/82/36 40/80/36
f 40/80/37 41/82/37 43/86/37 42/84/37
f 42/84/38 43/86/38 45/90/38 44/88/38
f 44/88/39 45/90/39 47/94/39 46/92/39
f 46/92/40 47/94/40 49/98/40 48/96/40
f 48/96/41 49/98/41 51/102/41 50/100/41
f 50/100/42 51/102/42 53/106/42 52/104/42
f 52/104/43 53/106/43 55/110/43 54/108/43
f 54/108/44 55/110/44 57/114/44 56/112/44
f 56/112/45 57/114/45 59/118/45 58/116/45
f 58/116/46 59/118/46 61/122/46 60/120/46
f 60/120/47 61/122/47 63/126/47 62/124/47
f 62/124/48 63/126/48 65/130/48 64/128/48
f 64/128/49 65/130/49 67/134/49 66/132/49
f 66/132/50 67/134/50 69/138/50 68/136/50
f 68/136/51 69/138/51 71/142/51 70/140/51
f 70/140/52 71/142/52 73/146/52 72/144/52
f 72/144/53 73/146/53 75/150/53 74/148/53
f 74/148/54 75/150/54 77/154/54 76/152/54
f 76/152/55 77/154/55 79/158/55 78/156/55
f 78/156/56 79/158/56 81/162/56 80/160/56
f 80/160/57 81/162/57 83/166/57 82/164/57
f 82/164/58 83/166/58 85/170/58 84/168/58
f 84/168/59 85/170/59 87/174/59 86/172/59
f 86/172/60 87/174/60 89/178/60 88/176/60
f 88/176/61 89/178/61 91/182/61 90/180/61
f 90/180/62 91/182/62 93/186/62 92/184/62
f 92/184/63 93/186/63 95/191/63 94/188/63
f 37/75/64 35/70/64 97/194/64 95/190/64 93/187/64 91/183/64 89/179/64 87/175/64 85/171/64 83/167/64 81/163/64 79/159/64 77/155/64 75/151/64 73/147/64 71/143/64 69/139/64 67/135/64 65/131/64 63/127/64 61/123/64 59/119/64 57/115/64 55/111/64 53/107/64 51/103/64 49/99/64 47/95/64 45/91/64 43/87/64 41/83/64 39/79/64
f 94/188/65 95/191/65 97/195/65 96/192/65
f 96/192/66 97/195/66 35/71/66 34/67/66
f 34/68/67 36/73/67 38/77/67 40/81/67 42/85/67 44/89/67 46/93/67 48/97/67 50/101/67 52/105/67 54/109/67 56/113/67 58/117/67 60/121/67 62/125/67 64/129/67 66/133/67 68/137/67 70/141/67 72/145/67 74/149/67 76/153/67 78/157/67 80/161/67 82/165/67 84/169/67 86/173/67 88/177/67 90/181/67 92/185/67 94/189/67 96/193/67
